<svg t="1596252808873" class="icon" viewBox="0 0 1024 1024" version="1.1" xmlns="http://www.w3.org/2000/svg" p-id="12112" width="200" height="200"><path d="M870.4 431.787H153.6c-40.96 0-73.387 34.133-73.387 73.387v443.733c0 40.96 34.133 75.093 73.387 75.093h716.8c40.96 0 73.387-34.133 73.387-73.387V506.88c0-40.96-34.133-75.093-73.387-75.093zM512 938.667c-58.027 0-104.107-46.08-104.107-104.107 0-44.373 27.307-81.92 64.853-97.28V578.56c0-22.187 17.067-39.253 39.253-39.253s39.253 17.067 39.253 39.253v158.72c37.547 15.36 64.853 52.907 64.853 97.28 0 58.027-46.08 104.107-104.107 104.107z"  p-id="12113"></path><path d="M791.893 435.2H711.68V279.893c0-110.933-88.747-199.68-199.68-199.68s-199.68 90.453-199.68 199.68V435.2h-80.213V279.893C232.107 124.586 358.4 0 512 0s279.893 126.293 279.893 279.893V435.2z"  p-id="12114"></path></svg>
