<?xml version="1.0" encoding="utf-8"?>
<!-- Generator: Adobe Illustrator 24.1.3, SVG Export Plug-In . SVG Version: 6.00 Build 0)  -->
<svg version="1.1" id="图层_1" xmlns="http://www.w3.org/2000/svg" xmlns:xlink="http://www.w3.org/1999/xlink" x="0px" y="0px"
	 viewBox="0 0 200 200" style="enable-background:new 0 0 200 200;" xml:space="preserve">
<path d="M164.3,57.1H150V50c0-27.6-22.4-50-50-50S50,22.4,50,50v7.1H35.7C20,57.1,7.1,70,7.1,85.7v85.7C7.1,187.1,20,200,35.7,200
	h128.6c15.7,0,28.6-12.9,28.6-28.6V85.7C192.9,70,180,57.1,164.3,57.1z M64.3,50c0-19.7,16-35.7,35.7-35.7s35.7,16,35.7,35.7v7.1
	H64.3V50z M178.6,171.4c0,7.9-6.4,14.3-14.3,14.3H35.7c-7.9,0-14.3-6.4-14.3-14.3V85.7c0-7.9,6.4-14.3,14.3-14.3H50v21.4
	c0,4,3.1,7.1,7.1,7.1s7.1-3.1,7.1-7.1V71.4h71.4v21.4c0,4,3.1,7.1,7.1,7.1c4,0,7.1-3.1,7.1-7.1V71.4h14.3c7.9,0,14.3,6.4,14.3,14.3
	V171.4z"/>
</svg>
