<svg t="1596254019953" class="icon" viewBox="0 0 1024 1024" version="1.1" xmlns="http://www.w3.org/2000/svg" p-id="27805" width="200" height="200"><path d="M612 745.585C612 701.08 575.922 665 531.417 665h-23.834c-44.06 0-79.86 35.361-80.572 79.253l-0.011 1.332v145.633h-0.223V940H25.41C11.93 940 1 929.08 1 915.609c0-13.47 10.93-24.39 24.411-24.39H79.14a53.257 53.257 0 0 1-2.06-13.848l-0.008-0.901V376.172c0-29.154 23.417-52.842 52.482-53.313l0.882-0.007h119.218c5.536 0 10.875 0.842 15.897 2.406l-0.002-26.097a34.023 34.023 0 0 1 12.35-26.224L498.609 90.508c10.506-8.684 25.709-8.677 36.207 0.018l220.258 182.412a34.023 34.023 0 0 1 12.325 26.203v26.88a53.305 53.305 0 0 1 18.167-3.17h119.217c29.473 0 53.365 23.873 53.365 53.32V876.47c0 5.117-0.722 10.065-2.068 14.749h43.51c13.482 0 24.411 10.92 24.411 24.39S1013.07 940 999.589 940H612V745.585zM264.167 374H138.19c-5.527 0-10.027 4.407-10.186 9.903l-0.004 0.301V891h137V374.062c-0.274-0.03-0.552-0.05-0.833-0.062z m632.59 0H770.414c-1.197 0-2.347 0.205-3.415 0.58V891h140V384.204c0-5.636-4.586-10.204-10.244-10.204z m-29.705 237C880.83 611 892 622.193 892 636s-11.17 25-24.948 25h-60.104C793.17 661 782 649.807 782 636s11.17-25 24.948-25h60.104z m-640 0C240.83 611 252 622.193 252 636s-11.17 25-24.948 25h-60.104C153.17 661 142 649.807 142 636s11.17-25 24.948-25h60.104z m377.972-111C618.818 500 630 511.193 630 525s-11.182 25-24.976 25H419.976C406.182 550 395 538.807 395 525s11.182-25 24.976-25h185.048z m262.028-8C880.83 492 892 503.193 892 517s-11.17 25-24.948 25h-60.104C793.17 542 782 530.807 782 517s11.17-25 24.948-25h60.104z m-640 0C240.83 492 252 503.193 252 517s-11.17 25-24.948 25h-60.104C153.17 542 142 530.807 142 517s11.17-25 24.948-25h60.104z m377.972-86C618.818 406 630 417.193 630 431s-11.182 25-24.976 25H419.976C406.182 456 395 444.807 395 431s11.182-25 24.976-25h185.048z m0-94C618.818 312 630 323.193 630 337s-11.182 25-24.976 25H419.976C406.182 362 395 350.807 395 337s11.182-25 24.976-25h185.048z"  p-id="27806"></path><path d="M360 891h305v49H360z"  p-id="27807"></path></svg>
