<?xml version="1.0" encoding="utf-8"?>
<!-- Generator: Adobe Illustrator 24.1.3, SVG Export Plug-In . SVG Version: 6.00 Build 0)  -->
<svg version="1.1" id="图层_1" xmlns="http://www.w3.org/2000/svg" xmlns:xlink="http://www.w3.org/1999/xlink" x="0px" y="0px"
	 viewBox="0 0 200 200" style="enable-background:new 0 0 200 200;" xml:space="preserve">
<path d="M192.5,200H7.5c-4.1,0-7.5-3.4-7.5-7.5c0,0,0,0,0,0V7.5C0,3.4,3.4,0,7.5,0S15,3.4,15,7.5V185h177.5c4.1,0,7.5,3.4,7.5,7.5
	S196.6,200,192.5,200L192.5,200z M180,175h-15c-5.5,0-10-4.5-10-10c0,0,0,0,0,0V55c0-5.5,4.5-10,10-10l0,0h15c5.5,0,10,4.5,10,10
	l0,0v110C190,170.5,185.5,175,180,175C180,175,180,175,180,175L180,175z M120,175h-15c-5.5,0-10-4.5-10-10l0,0V75
	c0-5.5,4.5-10,10-10h15c5.5,0,10,4.5,10,10l0,0v90C130,170.5,125.5,175,120,175C120,175,120,175,120,175L120,175z M60,175H45
	c-5.5,0-10-4.5-10-10l0,0V35c0-5.5,4.5-10,10-10h15c5.5,0,10,4.5,10,10v130C70,170.5,65.5,175,60,175L60,175L60,175z"/>
</svg>
