<?xml version="1.0" encoding="utf-8"?>
<!-- Generator: Adobe Illustrator 24.1.3, SVG Export Plug-In . SVG Version: 6.00 Build 0)  -->
<svg version="1.1" id="图层_1" xmlns="http://www.w3.org/2000/svg" xmlns:xlink="http://www.w3.org/1999/xlink" x="0px" y="0px"
	 viewBox="0 0 200 200" style="enable-background:new 0 0 200 200;" xml:space="preserve">
<path d="M94.8,95.1H47.2C21,95.1-0.3,73.7-0.3,47.5C-0.3,21.3,21,0,47.2,0s47.5,21.3,47.5,47.5C94.8,47.5,94.8,95.1,94.8,95.1z
	 M47.2,13.2c-18.9,0-34.3,15.4-34.3,34.3s15.4,34.3,34.3,34.3h34.3V47.5C81.5,28.6,66.1,13.2,47.2,13.2z M152.8,95.1h-47.5V47.5
	c0-26.2,21.3-47.5,47.5-47.5s47.5,21.3,47.5,47.5C200.3,73.7,179,95.1,152.8,95.1z M118.5,81.8h34.3c18.9,0,34.3-15.4,34.3-34.3
	s-15.4-34.3-34.3-34.3s-34.3,15.4-34.3,34.3C118.5,47.5,118.5,81.8,118.5,81.8z M47.2,200C21,200-0.3,178.7-0.3,152.5
	s21.3-47.5,47.5-47.5h47.5v47.5C94.8,178.7,73.4,200,47.2,200z M47.2,118.2c-18.9,0-34.3,15.4-34.3,34.3s15.4,34.3,34.3,34.3
	s34.3-15.4,34.3-34.3v-34.3L47.2,118.2L47.2,118.2z M152.8,200c-26.2,0-47.5-21.3-47.5-47.5v-47.5h47.5c26.2,0,47.5,21.3,47.5,47.5
	S179,200,152.8,200L152.8,200z M118.5,118.2v34.3c0,18.9,15.4,34.3,34.3,34.3s34.3-15.4,34.3-34.3s-15.4-34.3-34.3-34.3H118.5z"/>
</svg>
